<?xml version="1.0" encoding="utf-8"?>
<!-- Generator: Adobe Illustrator 24.0.1, SVG Export Plug-In . SVG Version: 6.00 Build 0)  -->
<svg version="1.1" id="Capa_1" xmlns="http://www.w3.org/2000/svg" xmlns:xlink="http://www.w3.org/1999/xlink" x="0px" y="0px"
	 viewBox="0 0 53.6 53.6" style="enable-background:new 0 0 53.6 53.6;" xml:space="preserve">
<style type="text/css">
	.st0{fill:#FFFFFF;}
	.st1{stroke:#000000;stroke-width:0.5;stroke-miterlimit:10;}
	.st2{fill:#191919;stroke:#000000;stroke-width:0.5;stroke-miterlimit:10;}
	.st3{fill:#0AA051;stroke:#000000;stroke-width:0.5;stroke-miterlimit:10;}
</style>
<circle class="st0" cx="26.1" cy="25.6" r="25"/>
<rect x="12.4" y="16.5" class="st1" width="30.1" height="11.9"/>
<g>
	<g>
		<path class="st2" d="M42.9,16.9c-5.4-8.9-13.5-2.7-13.5-2.7c-0.5,0.4-1.5,0.7-2.2,0.7l-2.2,0c-0.7,0-1.6-0.3-2.2-0.7
			c0,0-8.1-6.2-13.5,2.7C4,25.8,6.1,35.4,6.1,35.4c0.4,2.4,1.6,3.9,4,3.7c2.4-0.2,7.5-6.4,7.5-6.4c0.4-0.5,1.3-0.9,2-0.9l13.1,0
			c0.7,0,1.5,0.4,2,0.9c0,0,5.1,6.2,7.5,6.4c2.4,0.2,3.6-1.4,4-3.7C46.1,35.4,48.3,25.8,42.9,16.9z M21.2,24.1h-2.8v2.7
			c0,0-0.6,0.5-1.5,0.4c-0.9,0-1.3-0.5-1.3-0.5v-2.6H13c0,0-0.3-0.3-0.4-1.2c-0.1-0.9,0.4-1.6,0.4-1.6h2.8v-2.8c0,0,0.6-0.3,1.4-0.3
			c0.8,0,1.4,0.3,1.4,0.3l0,2.7h2.6c0,0,0.5,0.6,0.5,1.3C21.7,23.3,21.2,24.1,21.2,24.1z M34.1,27.2c-1.2,0-2.2-1-2.2-2.2
			c0-1.2,1-2.2,2.2-2.2c1.2,0,2.2,1,2.2,2.2C36.3,26.2,35.3,27.2,34.1,27.2z M34.1,21.1c-1.2,0-2.2-1-2.2-2.2c0-1.2,1-2.2,2.2-2.2
			c1.2,0,2.2,1,2.2,2.2C36.3,20.1,35.3,21.1,34.1,21.1z M39.6,24.4c-1.2,0-2.2-1-2.2-2.2c0-1.2,1-2.2,2.2-2.2c1.2,0,2.2,1,2.2,2.2
			C41.8,23.4,40.8,24.4,39.6,24.4z"/>
	</g>
	<g>
		<path class="st3" d="M27.9,22.6c-0.5-0.3-1-0.5-1.6-0.7c-0.3-0.1-0.6-0.3-0.9-0.5c-0.5-0.4-0.4-1.1,0.2-1.3C25.9,20,26,20,26.2,20
			c0.7,0,1.3,0.1,2,0.4c0.3,0.1,0.4,0.1,0.5-0.2c0.1-0.3,0.2-0.7,0.3-1c0.1-0.2,0-0.4-0.2-0.5c-0.4-0.2-0.8-0.3-1.2-0.4
			C27,18.2,27,18.1,27,17.6c0-0.8,0-0.8-0.8-0.8c-0.1,0-0.2,0-0.3,0c-0.4,0-0.4,0.1-0.4,0.5c0,0.2,0,0.3,0,0.5c0,0.5,0,0.5-0.5,0.7
			c-1.2,0.4-1.9,1.2-1.9,2.5c-0.1,1.1,0.5,1.9,1.4,2.4c0.6,0.3,1.2,0.5,1.8,0.8c0.2,0.1,0.5,0.2,0.7,0.4c0.6,0.5,0.5,1.3-0.2,1.6
			c-0.4,0.2-0.8,0.2-1.1,0.1c-0.6-0.1-1.2-0.2-1.7-0.5c-0.3-0.2-0.4-0.1-0.5,0.2c-0.1,0.3-0.2,0.6-0.3,0.9c-0.1,0.4-0.1,0.5,0.3,0.7
			c0.5,0.2,1,0.4,1.6,0.5c0.4,0.1,0.4,0.1,0.4,0.5c0,0.2,0,0.4,0,0.6c0,0.3,0.1,0.4,0.4,0.4c0.3,0,0.6,0,0.9,0
			c0.2,0,0.4-0.1,0.4-0.4c0-0.3,0-0.5,0-0.8c0-0.3,0.1-0.4,0.4-0.5c0.6-0.2,1.1-0.5,1.5-1C29.9,25.4,29.5,23.4,27.9,22.6z"/>
	</g>
</g>
</svg>
